<?xml version="1.0" standalone="no"?><!DOCTYPE svg PUBLIC "-//W3C//DTD SVG 1.1//EN" "http://www.w3.org/Graphics/SVG/1.1/DTD/svg11.dtd"><svg t="1700462213692" class="icon" viewBox="0 0 1024 1024" version="1.1" xmlns="http://www.w3.org/2000/svg" p-id="869" width="48" height="48" xmlns:xlink="http://www.w3.org/1999/xlink"><path d="M486.573336 71.898935c7.123954-7.362546 17.077215-11.745257 25.673678-11.660265 8.794095-0.080896 17.764318 4.00588 25.122767 11.620329l397.710589 410.025189-75.809645 0.001024c-16.631776 0-30.115782 13.48503-30.115782 30.117829v403.290354c0 26.619852-16.199649 48.470946-33.612735 48.470946h-127.979271V684.68085c0-103.962422-18.016221-133.953276-108.782381-133.953276H465.212737c-90.778448 0-108.782381 29.977542-108.782381 133.953276v279.083491H228.452108c-17.425374 0-33.612735-21.837782-33.612734-48.469922V512.000993c0-16.6328-13.482982-30.116806-30.115782-30.116805H88.931355L486.573336 71.898935z m503.915566 470.219888c13.750245 0 20.63868-6.01394 26.113997-14.39434a38.754229 38.754229 0 0 0 1.868797-3.184634c6.361076-9.072622 7.731185-21.523414 1.460221-32.394177 0.620543 1.075198-4.531191-9.206766-7.535601-14.126053-3.059706-5.010422-6.388724-9.502702-10.297324-13.553638L580.641889 29.960072C562.265221 10.942381 537.709749-0.243773 512.247014 0.006083c-24.952784-0.249856-50.614174 11.048939-68.932474 29.979589L21.967005 464.41171c-3.93932 4.0622-7.287794 8.568815-10.360812 13.594597-3.018746 4.93567-8.171504 15.234018-7.539697 14.139365-6.267892 10.864619-4.902902 23.306195 1.447933 32.376769a38.764469 38.764469 0 0 0 1.86982 3.190778c5.478389 8.391664 12.354536 14.405604 26.120142 14.405604h101.104444v373.175596c0 56.65781 38.579125 108.705581 93.843273 108.705581h158.091982c16.6328 0 30.115782-13.484006 30.115781-30.11783V684.68085c0-75.034478-0.790526-73.717617 48.551842-73.717617h93.568843c49.334176 0 48.551842-1.302525 48.551841 73.717617v309.20132c0 16.633824 13.482982 30.11783 30.115782 30.11783h158.094029c55.247765 0 93.844298-52.060059 93.844298-108.707629V542.120871h101.102396z" fill="#666666" p-id="870"></path></svg>