<?xml version="1.0" standalone="no"?><!DOCTYPE svg PUBLIC "-//W3C//DTD SVG 1.1//EN" "http://www.w3.org/Graphics/SVG/1.1/DTD/svg11.dtd"><svg t="1700464951838" class="icon" viewBox="0 0 1024 1024" version="1.1" xmlns="http://www.w3.org/2000/svg" p-id="1097" xmlns:xlink="http://www.w3.org/1999/xlink" width="48" height="48"><path d="M930.909091 256v605.090909H93.090909V256h837.818182m0-46.545455H93.090909a46.545455 46.545455 0 0 0-46.545454 46.545455v605.090909a46.545455 46.545455 0 0 0 46.545454 46.545455h837.818182a46.545455 46.545455 0 0 0 46.545454-46.545455V256a46.545455 46.545455 0 0 0-46.545454-46.545455z" fill="#1296db" p-id="1098"></path><path d="M954.181818 488.727273H69.818182v46.545454h884.363636v-46.545454zM674.909091 139.636364v69.818181H349.090909V139.636364h325.818182m0-46.545455H349.090909a46.545455 46.545455 0 0 0-46.545454 46.545455v116.363636h418.90909V139.636364a46.545455 46.545455 0 0 0-46.545454-46.545455z" fill="#1296db" p-id="1099"></path><path d="M302.545455 442.181818h-46.545455v139.636364h46.545455v-139.636364zM768 442.181818h-46.545455v139.636364h46.545455v-139.636364z" fill="#1296db" p-id="1100"></path></svg>